<svg xmlns="http://www.w3.org/2000/svg" version="1.1" xmlns:xlink="http://www.w3.org/1999/xlink" xmlns:svgjs="http://svgjs.dev/svgjs" width="1000" height="194" viewBox="0 0 1000 194"><g transform="matrix(1,0,0,1,-0.6060310965200983,0.3408700558518092)"><svg viewBox="0 0 396 77" data-background-color="#ffffff" preserveAspectRatio="xMidYMid meet" height="194" width="1000" xmlns="http://www.w3.org/2000/svg" xmlns:xlink="http://www.w3.org/1999/xlink"><g id="tight-bounds" transform="matrix(1,0,0,1,0.23998831422196076,-0.1352929317743019)"><svg viewBox="0 0 395.5199999999999 77.27058337481442" height="77.27058337481442" width="395.5199999999999"><g><svg viewBox="0 0 395.5199999999999 77.27058337481442" height="77.27058337481442" width="395.5199999999999"><g><svg viewBox="0 0 606.2051567799256 118.4309923877571" height="77.27058337481442" width="395.5199999999999"><g><rect width="5.152064213368103" height="57.41589355991117" x="192.04601347397082" y="30.507549413922966" fill="#16211e" opacity="1" stroke-width="0" stroke="transparent" fill-opacity="1" class="rect-o-0" data-fill-palette-color="primary" rx="1%" id="o-0" data-palette-color="#16211e"></rect></g><g transform="matrix(1,0,0,1,210.6851567799256,30.65037501979339)"><svg viewBox="0 0 395.52 57.13024234817032" height="57.13024234817032" width="395.52"><g id="textblocktransform"><svg viewBox="0 0 395.52 57.13024234817032" height="57.13024234817032" width="395.52" id="textblock"><g><svg viewBox="0 0 395.52 57.13024234817032" height="57.13024234817032" width="395.52"><g transform="matrix(1,0,0,1,0,0)"><svg width="395.52" viewBox="1.4600000381469727 -36.040000915527344 248.9299774169922 36.53000259399414" height="57.13024234817032" data-palette-color="#16211e"><g class="undefined-text-0" data-fill-palette-color="primary" id="text-0"><path d="M24.61-35.55L24.61-31.69 15.26-31.69 15.26 0 10.79 0 10.79-31.69 1.46-31.69 1.46-35.55 24.61-35.55ZM46.9-20.26L46.9-16.43 34.32-16.43 34.32-3.83 48.97-3.83 48.97 0 29.86 0 29.86-35.55 48.73-35.55 48.73-31.69 34.32-31.69 34.32-20.26 46.9-20.26ZM72.46-11.28L76.97-11.28Q76.68-5.57 73.76-2.54 70.84 0.49 65.52 0.49L65.52 0.49Q60.18 0.49 57.03-3.58 53.88-7.64 53.88-14.6L53.88-14.6 53.88-21.04Q53.88-27.98 57.11-32.01 60.35-36.04 65.94-36.04L65.94-36.04Q71.09-36.04 73.91-32.95 76.73-29.86 76.97-24.12L76.97-24.12 72.46-24.12Q72.16-28.47 70.62-30.32 69.09-32.18 65.94-32.18L65.94-32.18Q62.3-32.18 60.35-29.33 58.39-26.49 58.39-21L58.39-21 58.39-14.48Q58.39-9.08 60.21-6.2 62.03-3.32 65.52-3.32 69.01-3.32 70.55-5.05 72.09-6.79 72.46-11.28L72.46-11.28ZM106.29-35.55L106.29 0 101.8 0 101.8-16.43 87.49-16.43 87.49 0 83.02 0 83.02-35.55 87.49-35.55 87.49-20.26 101.8-20.26 101.8-35.55 106.29-35.55Z" fill="#16211e" data-fill-palette-color="primary"></path><path d="M125.65-8.98L125.65-8.98Q125.65-11.65 124.21-13.06 122.77-14.48 119.01-15.82 115.25-17.16 113.26-18.64 111.27-20.12 110.28-22.01 109.29-23.9 109.29-26.34L109.29-26.34Q109.29-30.57 112.11-33.3 114.93-36.04 119.5-36.04L119.5-36.04Q122.62-36.04 125.06-34.63 127.51-33.23 128.82-30.74 130.14-28.25 130.14-25.27L130.14-25.27 125.65-25.27Q125.65-28.56 124.06-30.37 122.48-32.18 119.5-32.18L119.5-32.18Q116.79-32.18 115.3-30.66 113.81-29.15 113.81-26.42L113.81-26.42Q113.81-24.17 115.42-22.66 117.03-21.14 120.4-19.95L120.4-19.95Q125.65-18.21 127.91-15.67 130.17-13.13 130.17-9.03L130.17-9.03Q130.17-4.71 127.36-2.11 124.55 0.49 119.72 0.49L119.72 0.49Q116.62 0.49 113.99-0.87 111.37-2.22 109.87-4.68 108.37-7.13 108.37-10.3L108.37-10.3 112.86-10.3Q112.86-7.01 114.7-5.18 116.54-3.34 119.72-3.34L119.72-3.34Q122.67-3.34 124.16-4.86 125.65-6.37 125.65-8.98ZM140.69-35.55L140.69 0 136.22 0 136.22-35.55 140.69-35.55ZM165.56-20.26L165.56-16.43 152.99-16.43 152.99-3.83 167.64-3.83 167.64 0 148.52 0 148.52-35.55 167.39-35.55 167.39-31.69 152.99-31.69 152.99-20.26 165.56-20.26ZM190.41 0L184.09-14.38 177.84-14.38 177.84 0 173.35 0 173.35-35.55 183.31-35.55Q188.53-35.55 191.22-32.82 193.9-30.1 193.9-24.85L193.9-24.85Q193.9-21.56 192.45-19.1 191-16.65 188.34-15.41L188.34-15.41 195.22-0.29 195.22 0 190.41 0ZM177.84-31.69L177.84-18.21 183.26-18.21Q186.07-18.21 187.74-20.02 189.41-21.83 189.41-24.85L189.41-24.85Q189.41-31.69 183.21-31.69L183.21-31.69 177.84-31.69ZM216.95 0L210.63-14.38 204.38-14.38 204.38 0 199.88 0 199.88-35.55 209.84-35.55Q215.07-35.55 217.75-32.82 220.44-30.1 220.44-24.85L220.44-24.85Q220.44-21.56 218.99-19.1 217.53-16.65 214.87-15.41L214.87-15.41 221.76-0.29 221.76 0 216.95 0ZM204.38-31.69L204.38-18.21 209.8-18.21Q212.6-18.21 214.28-20.02 215.95-21.83 215.95-24.85L215.95-24.85Q215.95-31.69 209.75-31.69L209.75-31.69 204.38-31.69ZM245.8 0L243-9.28 230.98-9.28 228.23 0 223.64 0 235.09-35.55 238.92-35.55 250.39 0 245.8 0ZM236.99-29.3L232.16-13.13 241.85-13.13 236.99-29.3Z" fill="#1d637d" data-fill-palette-color="secondary"></path></g></svg></g></svg></g></svg></g></svg></g><g><svg viewBox="0 0 178.55893438138415 118.4309923877571" height="118.4309923877571" width="178.55893438138415"><g><svg xmlns="http://www.w3.org/2000/svg" xmlns:xlink="http://www.w3.org/1999/xlink" version="1.1" x="0" y="0" viewBox="0 14.082000732421875 100 66.32599639892578" enable-background="new 0 0 100 100" xml:space="preserve" height="118.4309923877571" width="178.55893438138415" class="icon-icon-0" data-fill-palette-color="accent" id="icon-0"><path fill="#1d637d" d="M0 80.408l40.816-66.326 30.803 45.911-9.555 9.378 1.201 1.854 18.367-18.367L100 80.408H0zM40.985 20.207L27.208 42.271l5.934-3.629 2.108 10.983 4.265-13.435 7.404 13.189 0.588-11.081 11.031 9.023L40.985 20.207z" data-fill-palette-color="accent"></path></svg></g></svg></g></svg></g></svg></g><defs></defs></svg><rect width="395.5199999999999" height="77.27058337481442" fill="none" stroke="none" visibility="hidden"></rect></g></svg></g></svg>